<?xml version="1.0" encoding="UTF-8" standalone="no"?>
<svg
   xmlns:dc="http://purl.org/dc/elements/1.1/"
   xmlns:cc="http://creativecommons.org/ns#"
   xmlns:rdf="http://www.w3.org/1999/02/22-rdf-syntax-ns#"
   xmlns:svg="http://www.w3.org/2000/svg"
   xmlns="http://www.w3.org/2000/svg"
   xmlns:sodipodi="http://sodipodi.sourceforge.net/DTD/sodipodi-0.dtd"
   xmlns:inkscape="http://www.inkscape.org/namespaces/inkscape"
   version="1.1"
   id="Layer_1"
   x="0px"
   y="0px"
   viewBox="0 0 1080 1080"
   xml:space="preserve"
   sodipodi:docname="adaptiveIcon.svg"
   inkscape:version="0.92.3 (2405546, 2018-03-11)"
   inkscape:export-filename="E:\LocalCurrent\DoNotSpeak\icons\playStoreIcon.png"
   inkscape:export-xdpi="96"
   inkscape:export-ydpi="96"
   width="1080"
   height="1080"><metadata
   id="metadata31"><rdf:RDF><cc:Work
       rdf:about=""><dc:format>image/svg+xml</dc:format><dc:type
         rdf:resource="http://purl.org/dc/dcmitype/StillImage" /><dc:title /></cc:Work></rdf:RDF></metadata><defs
   id="defs29">
	
	
</defs><sodipodi:namedview
   pagecolor="#ffffff"
   bordercolor="#666666"
   borderopacity="1"
   objecttolerance="10"
   gridtolerance="10"
   guidetolerance="10"
   inkscape:pageopacity="0"
   inkscape:pageshadow="2"
   inkscape:window-width="2560"
   inkscape:window-height="1377"
   id="namedview27"
   showgrid="false"
   inkscape:zoom="0.70710678"
   inkscape:cx="-96.56069"
   inkscape:cy="497.75216"
   inkscape:window-x="-8"
   inkscape:window-y="-8"
   inkscape:window-maximized="1"
   inkscape:current-layer="Layer_1" />
<rect
   style="display:inline;fill:#1976d2;fill-opacity:1;stroke-width:1.2890625"
   width="660"
   height="660"
   id="rect2"
   x="210"
   y="210" />
<path
   style="display:inline;fill:#004ba0;fill-opacity:1;stroke-width:1.2890625"
   d="M 734.07692,347.40601 344.63402,568.62121 484.75158,709.1945 459.20196,728.84262 812,1080 h 268 V 693 Z"
   id="path4"
   inkscape:connector-curvature="0"
   sodipodi:nodetypes="cccccccc" />
<path
   style="display:inline;fill:#272525;stroke-width:1.2890625"
   d="m 509.08699,734.83149 h -35.54461 c -9.735,0 -18.08425,-6.94934 -19.85156,-16.52192 L 430.43097,592.31789 c -2.29066,-12.40723 7.23552,-23.85152 19.85157,-23.85152 h 35.54461 c 9.735,0 18.08426,6.94933 19.85156,16.52191 l 23.25984,125.99168 c 2.29067,12.40722 -7.23421,23.85153 -19.85156,23.85153 z"
   id="path6"
   inkscape:connector-curvature="0" />
<path
   style="fill:#ffffff;stroke-width:1.2890625"
   d="M 728.61949,647.75145 C 666.09609,629.06906 603.5727,610.38668 541.0493,591.7043 c 0,-57.77536 0,-115.5507 0,-173.32606 62.5234,-18.68152 125.04679,-37.36305 187.57019,-56.04457 0,95.13926 0,190.27852 0,285.41778 z"
   id="polygon8"
   inkscape:connector-curvature="0" />
<path
   style="fill:#d0d1d3;stroke-width:1.2890625"
   d="m 541.0493,505.55496 c 0,28.71645 0,57.43289 0,86.14934 62.52426,18.68152 125.04851,37.36305 187.57277,56.04457 0,-47.39797 0,-94.79594 0,-142.19391 -62.52426,0 -125.04851,0 -187.57277,0 z"
   id="polygon10"
   inkscape:connector-curvature="0" /><path
   inkscape:connector-curvature="0"
   id="path12"
   d="m 726.60469,664.91273 v 0 c -7.52684,0 -13.62926,-6.10242 -13.62926,-13.62925 V 358.79777 c 0,-7.52683 6.10242,-13.62925 13.62926,-13.62925 v 0 c 7.52683,0 13.62926,6.10242 13.62926,13.62925 v 292.487 c 0,7.52683 -6.10243,13.62796 -13.62926,13.62796 z"
   style="fill:#d0d1d3;stroke-width:1.2890625" />
<path
   style="fill:#a6a8aa;stroke-width:1.2890625"
   d="m 712.97543,505.55496 v 145.72851 c 0,7.52685 6.10242,13.62927 13.62925,13.62927 7.52685,0 13.62927,-6.10243 13.62927,-13.62927 V 505.55496 Z"
   id="path16"
   inkscape:connector-curvature="0" />
<path
   style="fill:#ffedb5;stroke-width:1.2890625"
   d="m 370.75125,579.48656 h 58.72711 v -148.8893 h -58.72711 c -20.34012,0 -36.82851,16.4884 -36.82851,36.82852 v 75.23098 c 0,20.3414 16.48839,36.82981 36.82851,36.8298 z"
   id="path18"
   inkscape:connector-curvature="0" />
<path
   style="fill:#fee187;stroke-width:1.2890625"
   d="m 333.92274,505.55496 v 37.10051 c 0,20.34012 16.48839,36.82852 36.82851,36.82852 h 58.72711 v -73.92903 z"
   id="path20"
   inkscape:connector-curvature="0" />
<path
   style="fill:#808183;stroke-width:1.2890625"
   d="M 541.0493,591.7043 H 426.93633 c -8.77078,0 -15.87996,-7.11176 -15.87996,-15.87996 V 434.25949 c 0,-8.77078 7.11047,-15.87996 15.87996,-15.87996 H 541.0493 Z"
   id="path22"
   inkscape:connector-curvature="0" />
<path
   style="fill:#59595b;stroke-width:1.2890625"
   d="m 411.05379,505.55496 v 70.2668 c 0,8.77078 7.11047,15.88254 15.87996,15.88254 h 114.11297 v -86.14934 z"
   id="path24"
   inkscape:connector-curvature="0" />
<path
   style="display:inline;fill:#63a4ff;fill-opacity:1;stroke-width:1.54585159"
   d="M -33.833,34.07329 1045.9267,1113.8329 1114.0733,1046.1672 33.833,-34.07329 Z"
   id="rect19"
   inkscape:connector-curvature="0"
   sodipodi:nodetypes="ccccc" /><g
   inkscape:groupmode="layer"
   id="layer2"
   inkscape:label="AdaptiveIconGuide"
   style="display:none"
   sodipodi:insensitive="true"><circle
     style="opacity:1;fill:#00ffff;fill-opacity:0.39215686;stroke:none;stroke-opacity:1"
     id="path826"
     cx="540"
     cy="540"
     r="330" /></g></svg>