<?xml version="1.0" encoding="UTF-8" standalone="no"?>
<svg
   xmlns:dc="http://purl.org/dc/elements/1.1/"
   xmlns:cc="http://creativecommons.org/ns#"
   xmlns:rdf="http://www.w3.org/1999/02/22-rdf-syntax-ns#"
   xmlns:svg="http://www.w3.org/2000/svg"
   xmlns="http://www.w3.org/2000/svg"
   xmlns:sodipodi="http://sodipodi.sourceforge.net/DTD/sodipodi-0.dtd"
   xmlns:inkscape="http://www.inkscape.org/namespaces/inkscape"
   version="1.1"
   id="Layer_1"
   x="0px"
   y="0px"
   viewBox="0 0 512 512"
   style="enable-background:new 0 0 512 512;"
   xml:space="preserve"
   sodipodi:docname="launcher.svg"
   inkscape:version="0.92.3 (2405546, 2018-03-11)"><metadata
   id="metadata31"><rdf:RDF><cc:Work
       rdf:about=""><dc:format>image/svg+xml</dc:format><dc:type
         rdf:resource="http://purl.org/dc/dcmitype/StillImage" /></cc:Work></rdf:RDF></metadata><defs
   id="defs29" /><sodipodi:namedview
   pagecolor="#ffffff"
   bordercolor="#666666"
   borderopacity="1"
   objecttolerance="10"
   gridtolerance="10"
   guidetolerance="10"
   inkscape:pageopacity="0"
   inkscape:pageshadow="2"
   inkscape:window-width="1459"
   inkscape:window-height="896"
   id="namedview27"
   showgrid="false"
   inkscape:zoom="0.5"
   inkscape:cx="-51.858215"
   inkscape:cy="373.65617"
   inkscape:window-x="0"
   inkscape:window-y="0"
   inkscape:window-maximized="0"
   inkscape:current-layer="Layer_1" />
<circle
   style="display:inline;fill:#1976d2;fill-opacity:1"
   cx="256"
   cy="256"
   r="256"
   id="circle2" />
<path
   style="display:inline;fill:#004ba0;fill-opacity:1"
   d="M 299.18,508.356 C 420,487.829 512,382.666 512,256 c 0,-16.615 -1.602,-32.854 -4.625,-48.587 L 406.556,106.594 310.269,248.351 265.563,203.645 104.443,278.204 213.14,387.253 193.32,402.496 Z"
   id="path4"
   inkscape:connector-curvature="0" />
<path
   style="display:inline;fill:#272525"
   d="m 232.019,407.142 h -27.574 c -7.552,0 -14.029,-5.391 -15.4,-12.817 l -18.044,-97.739 c -1.777,-9.625 5.613,-18.503 15.4,-18.503 h 27.574 c 7.552,0 14.029,5.391 15.4,12.817 l 18.044,97.739 c 1.777,9.625 -5.612,18.503 -15.4,18.503 z"
   id="path6"
   inkscape:connector-curvature="0" />
<polygon
   style="fill:#FFFFFF;"
   points="402.323,339.589 256.814,296.11 256.814,161.651 402.323,118.174 "
   id="polygon8" />
<g
   id="g14">
	<polygon
   style="fill:#d0d1d3"
   points="402.325,339.587 402.325,229.279 256.814,229.279 256.814,296.11 "
   id="polygon10" />
	<path
   style="fill:#d0d1d3"
   d="m 400.76,352.902 v 0 c -5.839,0 -10.573,-4.734 -10.573,-10.573 V 115.431 c 0,-5.839 4.734,-10.573 10.573,-10.573 v 0 c 5.839,0 10.573,4.734 10.573,10.573 V 342.33 c 0,5.839 -4.734,10.572 -10.573,10.572 z"
   id="path12"
   inkscape:connector-curvature="0" />
</g>
<path
   style="fill:#A6A8AA;"
   d="M390.187,229.279v113.05c0,5.839,4.734,10.573,10.573,10.573c5.839,0,10.573-4.734,10.573-10.573  v-113.05H390.187z"
   id="path16" />
<path
   style="fill:#FFEDB5;"
   d="M124.704,286.632h45.558V171.13h-45.558c-15.779,0-28.57,12.791-28.57,28.57v58.361  C96.134,273.841,108.925,286.632,124.704,286.632z"
   id="path18" />
<path
   style="fill:#FEE187;"
   d="M96.134,229.279v28.781c0,15.779,12.791,28.57,28.57,28.57h45.558v-57.351H96.134z"
   id="path20" />
<path
   style="fill:#808183;"
   d="M256.814,296.11h-88.524c-6.804,0-12.319-5.517-12.319-12.319v-109.82  c0-6.804,5.516-12.319,12.319-12.319h88.524V296.11z"
   id="path22" />
<path
   style="fill:#59595B;"
   d="M155.969,229.279v54.51c0,6.804,5.516,12.321,12.319,12.321h88.524v-66.831H155.969z"
   id="path24" />
<path
   style="fill:#63a4ff"
   d="M 103.20837,50.607336 C 83.203004,65.500097 65.433335,83.260271 50.556912,103.27779 L 408.7168,461.45508 c 20.00536,-14.89276 37.79154,-32.62809 52.66796,-52.6456 z"
   id="rect4541"
   inkscape:connector-curvature="0"
   sodipodi:nodetypes="ccccc" /></svg>