<?xml version="1.0" encoding="iso-8859-1"?>
<!-- Generator: Adobe Illustrator 19.0.0, SVG Export Plug-In . SVG Version: 6.00 Build 0)  -->
<svg xmlns="http://www.w3.org/2000/svg" xmlns:xlink="http://www.w3.org/1999/xlink" version="1.1" id="Layer_1" x="0px" y="0px" viewBox="0 0 512 512" style="enable-background:new 0 0 512 512;" xml:space="preserve">
<circle style="fill:#FF5419;" cx="256" cy="256" r="256"/>
<path style="fill:#C92F00;" d="M299.18,508.356C420,487.829,512,382.666,512,256c0-16.615-1.602-32.854-4.625-48.587  L406.556,106.594l-96.287,141.757l-44.706-44.706l-161.12,74.559L213.14,387.253l-19.82,15.243L299.18,508.356z"/>
<path style="fill:#272525;" d="M232.019,407.142h-27.574c-7.552,0-14.029-5.391-15.4-12.817l-18.044-97.739  c-1.777-9.625,5.613-18.503,15.4-18.503h27.574c7.552,0,14.029,5.391,15.4,12.817l18.044,97.739  C249.196,398.264,241.807,407.142,232.019,407.142z"/>
<polygon style="fill:#FFFFFF;" points="402.323,339.589 256.814,296.11 256.814,161.651 402.323,118.174 "/>
<g>
	<polygon style="fill:#D0D1D3;" points="256.814,229.279 256.814,296.11 402.325,339.587 402.325,229.279  "/>
	<path style="fill:#D0D1D3;" d="M400.76,352.902L400.76,352.902c-5.839,0-10.573-4.734-10.573-10.573V115.431   c0-5.839,4.734-10.573,10.573-10.573l0,0c5.839,0,10.573,4.734,10.573,10.573V342.33   C411.333,348.169,406.599,352.902,400.76,352.902z"/>
</g>
<path style="fill:#A6A8AA;" d="M390.187,229.279v113.05c0,5.839,4.734,10.573,10.573,10.573c5.839,0,10.573-4.734,10.573-10.573  v-113.05H390.187z"/>
<path style="fill:#FFEDB5;" d="M124.704,286.632h45.558V171.13h-45.558c-15.779,0-28.57,12.791-28.57,28.57v58.361  C96.134,273.841,108.925,286.632,124.704,286.632z"/>
<path style="fill:#FEE187;" d="M96.134,229.279v28.781c0,15.779,12.791,28.57,28.57,28.57h45.558v-57.351H96.134z"/>
<path style="fill:#808183;" d="M256.814,296.11h-88.524c-6.804,0-12.319-5.517-12.319-12.319v-109.82  c0-6.804,5.516-12.319,12.319-12.319h88.524V296.11z"/>
<path style="fill:#59595B;" d="M155.969,229.279v54.51c0,6.804,5.516,12.321,12.319,12.321h88.524v-66.831H155.969z"/>
</svg>
